<?xml version="1.0" encoding="UTF-8"?><svg id="Layer_2" xmlns="http://www.w3.org/2000/svg" viewBox="0 0 703.59 148.99"><defs><style>.cls-1{fill:#00020f;}.cls-2{fill:#9e2727;}</style></defs><g id="Layer_1-2"><path class="cls-1" d="M202.54,70.14h-18.55V29.31h18.72c7.93,0,12.95,3.79,12.95,10.79,0,3.5-1.63,6.3-4.32,7.93,3.27,1.46,5.71,4.43,5.71,8.92,0,8.57-5.77,13.18-14.52,13.18ZM202.36,36.83h-10.38v7.76h10.79c3.38,0,4.61-1.57,4.61-3.85,0-2.57-1.46-3.91-5.02-3.91ZM202.83,51.82h-10.85v10.56h10.85c3.97,0,5.83-2.1,5.83-5.31,0-3.5-1.87-5.25-5.83-5.25Z"/><path class="cls-1" d="M240.67,70.78c-10.67,0-17.96-7.81-17.96-20.99s7.41-21.11,18.08-21.11,17.9,7.81,17.9,20.99-7.41,21.11-18.02,21.11ZM240.61,36.78c-5.72,0-9.51,4.61-9.51,12.89s3.96,13,9.68,13,9.51-4.61,9.51-12.89-3.96-13-9.68-13Z"/><path class="cls-1" d="M282.6,70.78c-10.67,0-17.96-7.81-17.96-20.99s7.41-21.11,18.08-21.11,17.9,7.81,17.9,20.99-7.41,21.11-18.02,21.11ZM282.54,36.78c-5.72,0-9.51,4.61-9.51,12.89s3.96,13,9.68,13,9.51-4.61,9.51-12.89-3.96-13-9.68-13Z"/><path class="cls-1" d="M334.62,70.14l-14.99-22.28c-.99-1.52-2.33-3.56-2.86-4.61,0,1.52.12,6.65.12,8.92v17.96h-8.05V29.31h7.82l14.46,21.58c.99,1.52,2.33,3.56,2.86,4.61,0-1.52-.12-6.65-.12-8.92v-17.26h8.05v40.82h-7.29Z"/><path class="cls-1" d="M352.4,70.14V29.31h28.34v7.99h-20.18v7.06h11.72v7.93h-11.72v9.86h21.05v7.99h-29.22Z"/><path class="cls-1" d="M422.91,70.78c-10.67,0-17.85-8.16-17.85-21.05s7.46-21.05,18.14-21.05c8.34,0,12.77,3.91,15.45,10.21l-7.76,3.21c-1.52-3.03-3.38-5.31-7.81-5.31-6.12,0-9.62,5.37-9.62,12.95s3.56,13.06,9.68,13.06c5.6,0,7.52-2.62,7.99-6.18h-6.47v-7.64h14.64v5.36c0,10.5-6.94,16.45-16.39,16.45Z"/><path class="cls-1" d="M471.6,70.14l-7.29-14.7h-8.22v14.7h-8.17V29.31h19.01c7.7,0,14.06,4.26,14.06,12.95,0,6.12-2.62,9.97-7.81,12.01l7.81,15.86h-9.39ZM466.76,37.24h-10.67v10.5h10.67c3.79,0,5.83-1.75,5.83-5.31s-2.22-5.19-5.83-5.19Z"/><path class="cls-1" d="M515.87,70.14l-3.21-9.1h-14.93l-3.21,9.1h-8.75l15.63-40.82h7.93l15.51,40.82h-8.98ZM507.24,45.87c-.82-2.39-1.63-4.84-2.04-6.36-.41,1.52-1.23,3.96-2.04,6.36l-2.62,7.41h9.33l-2.62-7.41Z"/><path class="cls-1" d="M549.57,55.67h-8.98v14.46h-8.17V29.31h17.85c7.7,0,14.06,4.26,14.06,12.95,0,9.45-6.3,13.41-14.75,13.41ZM549.98,37.24h-9.39v10.5h9.51c3.79,0,5.83-1.75,5.83-5.31s-2.33-5.19-5.95-5.19Z"/><path class="cls-1" d="M596.99,70.14v-17.15h-16.74v17.15h-8.17V29.31h8.17v15.63h16.74v-15.63h8.16v40.82h-8.16Z"/><path class="cls-1" d="M616.23,70.14V29.31h8.17v40.82h-8.17Z"/><path class="cls-1" d="M658.8,41.21c-1.46-2.8-3.79-4.43-7.46-4.43-6.12,0-9.62,5.37-9.62,12.95s3.56,12.95,9.68,12.95c3.67,0,5.83-1.57,7.99-5.19l6.88,4.08c-2.8,5.77-7.7,9.21-15.11,9.21-10.67,0-17.85-8.16-17.85-21.05s7.46-21.05,18.14-21.05c7.7,0,12.36,3.73,14.93,9.04l-7.58,3.5Z"/><path class="cls-1" d="M687.56,70.78c-6.82,0-12.77-2.86-15.86-7.41l5.89-5.25c2.86,3.32,6.53,4.67,10.44,4.67,4.84,0,7.12-1.34,7.12-4.43,0-2.62-1.4-3.79-9.1-5.54-7.52-1.75-12.77-4.14-12.77-12.19,0-7.41,6.53-11.95,14.58-11.95,6.36,0,11.02,2.39,14.87,6.41l-5.89,5.72c-2.62-2.68-5.54-4.2-9.27-4.2-4.37,0-5.83,1.87-5.83,3.67,0,2.57,1.75,3.38,8.22,4.9,6.47,1.52,13.65,3.73,13.65,12.6,0,7.76-4.9,13-16.04,13Z"/><path class="cls-1" d="M190.02,113.79c1.74-2.17,6.58-8.36,6.58-11.21,0-.72-.17-1.4-.47-1.87-.13-.34-.13-.68,0-1.06.3-.68,1.02-1.23,1.83-1.23,1.02,0,1.78.98,1.83,2.42,0,1.32-.68,2.97-2.63,5.69-2.46,3.44-6.24,8.32-8.79,11.46h-1.15c-.13-3.95-.59-10.61-.81-13.2-.21-2.55-.47-3.27-.76-3.27-.38,0-1.15.68-2.5,2.25l-.68-.93c1.53-2.21,3.69-4.41,5.05-4.41,1.1,0,1.66,1.61,1.87,4.71.17,3.74.42,7.17.55,10.65h.08Z"/><path class="cls-1" d="M210.18,113.75c-1.4,1.74-4.71,4.25-6.2,4.25-.85,0-1.4-.68-.55-4.16l2.63-10.87c.25-.93.25-1.36-.04-1.36-.34,0-1.61.72-2.89,1.83l-.51-.98c2.33-2.29,5.31-4.03,6.45-4.03.93,0,.89,1.36.42,3.35l-2.93,11.72c-.25,1.02-.17,1.36.08,1.36.51,0,2-1.1,2.97-2l.55.89ZM211.29,92.18c0,1.32-.98,2.46-2.25,2.46-1.02,0-1.74-.76-1.78-1.87,0-1.06.85-2.5,2.33-2.5,1.1,0,1.66.89,1.7,1.91Z"/><path class="cls-1" d="M212.43,114.94c-.04-.72.51-1.36,1.23-1.78.51-.25.85-.17,1.06.13,1.1,1.66,2.67,2.59,4.08,2.59,1.7,0,2.8-1.19,2.8-2.55,0-1.06-.47-2-2.46-3.57-1.91-1.44-3.69-3.01-3.69-5.18,0-1.27.51-2.63,2.21-4.12,1.32-1.15,3.35-2.04,4.71-2.04,1.87,0,3.31,1.27,3.31,2.38,0,.72-.42,1.36-1.06,1.74-.42.25-.68.17-.93-.17-.85-1.06-1.87-1.91-3.31-1.91-1.23,0-2.29.93-2.29,2.38,0,1.53,1.23,2.59,2.76,3.78,2.55,1.91,3.57,3.14,3.57,4.97,0,3.23-4.25,6.41-7.68,6.41-2,0-4.29-1.57-4.29-3.06Z"/><path class="cls-1" d="M247.24,113.66c-2.04,2.46-4.84,4.33-6.16,4.33-.89,0-1.49-.81-.64-4.5.34-1.49.51-2.33.81-3.74h-.08c-2.08,2.76-4.58,5.35-6.83,6.92-1.19.85-2.42,1.32-3.44,1.32-1.15,0-2.5-.81-1.4-5.39.76-3.27,1.53-6.54,2.29-9.76.25-1.06.21-1.44-.13-1.44-.3,0-1.49.85-2.97,2.04l-.47-1.02c2.46-2.46,5.09-3.99,6.24-3.99.98,0,1.15.85.47,3.69-.76,3.35-1.53,6.79-2.33,10.19-.47,2.08-.13,2.8.51,2.8,2.38,0,7.13-5.69,8.79-8.79.47-1.95.98-4.2,1.53-6.79l2.93-1.1h.47c-1.15,4.5-2.25,9.25-3.31,14.77-.25,1.32-.17,1.66.13,1.66.38,0,1.91-1.02,3.06-2.21l.55,1.02Z"/><path class="cls-1" d="M268,113.58c-2.29,2.84-5.14,4.42-6.2,4.42-.81,0-1.36-.64-.76-3.74l.85-4.03h-.08c-1.66,2.33-3.65,4.37-5.48,5.86-1.4,1.15-2.8,1.91-3.95,1.91s-2.46-1.4-2.46-4.8c0-4.29,2-8.92,5.09-11.5,2.12-1.78,5.22-3.27,7.9-3.27.89,0,1.74.13,2.63.3.59.13,1.15.25,1.61.25l.13.17c-.68,2.63-1.95,8.4-2.93,13.8-.3,1.49-.17,1.83.08,1.83.34,0,1.83-.98,3.06-2.21l.51,1.02ZM262.48,106.96c.47-1.7,1.1-4.75,1.4-6.11-.59-.3-1.74-.59-2.84-.59s-2.29.34-3.01.89c-2.89,2.12-4.58,7.13-4.58,11.33,0,1.91.55,2.8,1.15,2.8,1.66,0,6.45-5.39,7.9-8.32Z"/><path class="cls-1" d="M278.36,113.45c-2.21,2.63-5.22,4.54-6.54,4.54-.81,0-1.49-.98-.59-5.14,1.49-6.96,2.97-13.92,4.42-20.93.42-1.83.17-2.12-1.78-2.12l-1.15-.04.17-1.02c3.31-.38,5.73-1.49,6.28-1.49.38,0,.42.38.25,1.27-1.74,8.19-3.48,16.43-5.26,24.83-.25,1.23-.08,1.49.17,1.49.47,0,2.21-1.1,3.4-2.33l.64.93Z"/><path class="cls-1" d="M303.79,113.28c-2.63,3.01-5.99,4.71-8.49,4.71-2.72,0-4.54-2.17-4.54-6.24,0-3.52,1.66-7.68,4.37-10.19,1.74-1.53,4.71-3.14,6.79-3.14,1.83,0,3.18,1.06,3.23,2.12,0,.64-.42,1.44-1.4,1.95-.34.21-.64.13-.93-.25-.89-1.23-1.87-1.83-3.18-1.83-1.53,0-2.72,1.27-3.52,2.8-1.06,1.91-1.87,4.8-1.87,7.68s1.19,4.58,3.01,4.58c2.17,0,4.75-1.95,5.9-3.14l.64.93Z"/><path class="cls-1" d="M306.76,111.37c0-5.52,2.93-9.72,6.45-11.59,1.53-.81,3.27-1.36,4.58-1.36,3.52,0,5.65,2.42,5.65,6.62,0,3.65-1.57,7.81-4.54,10.27-1.83,1.53-4.16,2.67-6.54,2.67-4.03,0-5.6-3.18-5.6-6.62ZM315.25,116.04c2.29-.98,4.63-5.48,4.63-10.91,0-3.44-1.49-5.09-3.44-5.09-.64,0-1.15.17-1.61.38-1.66.72-4.5,4.2-4.5,10.74,0,3.14,1.32,5.14,3.57,5.14.51,0,.93-.08,1.36-.25Z"/><path class="cls-1" d="M356.09,113.92c-2.25,2.5-4.92,4.08-5.99,4.08s-1.4-1.27-.68-4.37l2.33-9.81c.47-2.08.21-2.76-.42-2.76-2,0-7.17,6.03-8.66,8.87-.51,2-1.15,4.84-1.66,7.3-1.1.13-2.21.42-3.1.76l-.25-.3c1.06-4.29,2.17-8.62,3.06-12.73.59-2.89.55-3.91-.34-3.91-2.04,0-7.22,6.16-8.57,8.87-.55,1.91-1.19,4.75-1.74,7.3-1.06.13-2.12.42-3.06.76l-.3-.3c1.27-4.8,2.46-9.64,3.52-14.43.34-1.53.25-1.83-.04-1.83-.42,0-1.91,1.15-2.93,2.08l-.51-1.02c2.38-2.55,4.88-4.08,5.99-4.08s1.23,1.57.34,5.22l-.72,3.01h.08c2.89-4.08,5.82-6.37,7.6-7.39.98-.55,1.78-.85,2.63-.85,1.15,0,2.21,1.06,1.02,6.45l-.38,1.74h.08c2.89-4.03,5.94-6.37,7.77-7.39,1.06-.59,1.78-.81,2.59-.81.85,0,2.25.51.89,6.16l-2.08,8.87c-.25,1.06-.17,1.36.08,1.36.34,0,1.66-.76,2.89-1.91l.55,1.02Z"/><path class="cls-1" d="M388.77,113.92c-2.25,2.5-4.92,4.08-5.99,4.08s-1.4-1.27-.68-4.37l2.33-9.81c.47-2.08.21-2.76-.42-2.76-2,0-7.17,6.03-8.66,8.87-.51,2-1.15,4.84-1.66,7.3-1.1.13-2.21.42-3.1.76l-.25-.3c1.06-4.29,2.17-8.62,3.06-12.73.59-2.89.55-3.91-.34-3.91-2.04,0-7.22,6.16-8.58,8.87-.55,1.91-1.19,4.75-1.74,7.3-1.06.13-2.12.42-3.06.76l-.3-.3c1.27-4.8,2.46-9.64,3.52-14.43.34-1.53.25-1.83-.04-1.83-.42,0-1.91,1.15-2.93,2.08l-.51-1.02c2.38-2.55,4.88-4.08,5.99-4.08s1.23,1.57.34,5.22l-.72,3.01h.08c2.89-4.08,5.82-6.37,7.6-7.39.98-.55,1.78-.85,2.63-.85,1.15,0,2.21,1.06,1.02,6.45l-.38,1.74h.08c2.89-4.03,5.94-6.37,7.77-7.39,1.06-.59,1.78-.81,2.59-.81.85,0,2.25.51.89,6.16l-2.08,8.87c-.25,1.06-.17,1.36.08,1.36.34,0,1.66-.76,2.89-1.91l.55,1.02Z"/><path class="cls-1" d="M411.14,113.66c-2.04,2.46-4.84,4.33-6.16,4.33-.89,0-1.49-.81-.64-4.5.34-1.49.51-2.33.81-3.74h-.08c-2.08,2.76-4.58,5.35-6.83,6.92-1.19.85-2.42,1.32-3.44,1.32-1.15,0-2.5-.81-1.4-5.39.76-3.27,1.53-6.54,2.29-9.76.25-1.06.21-1.44-.13-1.44-.3,0-1.49.85-2.97,2.04l-.47-1.02c2.46-2.46,5.09-3.99,6.24-3.99.98,0,1.15.85.47,3.69-.76,3.35-1.53,6.79-2.33,10.19-.47,2.08-.13,2.8.51,2.8,2.38,0,7.13-5.69,8.79-8.79.47-1.95.98-4.2,1.53-6.79l2.93-1.1h.47c-1.15,4.5-2.25,9.25-3.31,14.77-.25,1.32-.17,1.66.13,1.66.38,0,1.91-1.02,3.06-2.21l.55,1.02Z"/><path class="cls-1" d="M432.8,113.87c-2.5,2.72-4.88,4.12-5.99,4.12s-1.44-1.15-.68-4.42c.81-3.18,1.53-6.28,2.29-9.42.59-2.42.34-3.06-.34-3.06-1.87,0-6.79,5.26-8.91,8.87-.51,2.08-1.15,4.63-1.66,7.17-1.1.21-2.25.55-3.06.85l-.25-.34c1.15-4.58,2.42-9.68,3.44-14.39.34-1.36.21-1.7-.04-1.7-.38,0-1.7.89-2.76,1.91l-.55-1.02c2.29-2.5,4.8-4.03,5.99-4.03.98,0,1.15,1.44.34,4.71l-.89,3.69h.08c2.89-3.95,6.03-6.41,7.81-7.47,1.1-.64,2-.93,2.84-.93,1.02,0,2.21.64.93,6.07-.68,2.89-1.36,5.86-2.08,8.83-.25,1.15-.21,1.53.08,1.53.38,0,1.53-.76,2.8-2l.59,1.02Z"/><path class="cls-1" d="M443.66,113.75c-1.4,1.74-4.71,4.25-6.2,4.25-.85,0-1.4-.68-.55-4.16l2.63-10.87c.25-.93.25-1.36-.04-1.36-.34,0-1.61.72-2.89,1.83l-.51-.98c2.33-2.29,5.31-4.03,6.45-4.03.93,0,.89,1.36.42,3.35l-2.93,11.72c-.25,1.02-.17,1.36.08,1.36.51,0,2-1.1,2.97-2l.55.89ZM444.77,92.18c0,1.32-.98,2.46-2.25,2.46-1.02,0-1.74-.76-1.78-1.87,0-1.06.85-2.5,2.33-2.5,1.1,0,1.66.89,1.7,1.91Z"/><path class="cls-1" d="M459.96,113.28c-2.63,3.01-5.99,4.71-8.49,4.71-2.72,0-4.54-2.17-4.54-6.24,0-3.52,1.66-7.68,4.37-10.19,1.74-1.53,4.71-3.14,6.79-3.14,1.83,0,3.18,1.06,3.23,2.12,0,.64-.42,1.44-1.4,1.95-.34.21-.64.13-.93-.25-.89-1.23-1.87-1.83-3.18-1.83-1.53,0-2.72,1.27-3.52,2.8-1.06,1.91-1.87,4.8-1.87,7.68s1.19,4.58,3.01,4.58c2.17,0,4.75-1.95,5.9-3.14l.64.93Z"/><path class="cls-1" d="M480.72,113.58c-2.29,2.84-5.14,4.42-6.2,4.42-.81,0-1.36-.64-.76-3.74l.85-4.03h-.08c-1.66,2.33-3.65,4.37-5.48,5.86-1.4,1.15-2.8,1.91-3.95,1.91s-2.46-1.4-2.46-4.8c0-4.29,2-8.92,5.09-11.5,2.12-1.78,5.22-3.27,7.9-3.27.89,0,1.74.13,2.63.3.59.13,1.15.25,1.61.25l.13.17c-.68,2.63-1.95,8.4-2.93,13.8-.3,1.49-.17,1.83.08,1.83.34,0,1.83-.98,3.06-2.21l.51,1.02ZM475.2,106.96c.47-1.7,1.1-4.75,1.4-6.11-.59-.3-1.74-.59-2.84-.59s-2.29.34-3.01.89c-2.89,2.12-4.58,7.13-4.58,11.33,0,1.91.55,2.8,1.15,2.8,1.66,0,6.45-5.39,7.9-8.32Z"/><path class="cls-1" d="M494.1,100.55l-4.2.21-2.5,11.72c-.42,2.08-.21,2.55.25,2.55.72,0,2.8-1.4,3.82-2.46l.59.89c-1.4,1.7-4.58,4.54-6.83,4.54-.98,0-1.83-1.23-.89-5.6l2.5-11.63h-3.14l-.13-.38,1.06-1.27h2.55l.98-4.03,3.23-2.63.38.25-1.49,6.41h4.92l-1.1,1.44Z"/><path class="cls-1" d="M503.52,113.75c-1.4,1.74-4.71,4.25-6.2,4.25-.85,0-1.4-.68-.55-4.16l2.63-10.87c.25-.93.25-1.36-.04-1.36-.34,0-1.61.72-2.89,1.83l-.51-.98c2.33-2.29,5.31-4.03,6.45-4.03.93,0,.89,1.36.42,3.35l-2.93,11.72c-.25,1.02-.17,1.36.08,1.36.51,0,2-1.1,2.97-2l.55.89ZM504.62,92.18c0,1.32-.98,2.46-2.25,2.46-1.02,0-1.74-.76-1.78-1.87,0-1.06.85-2.5,2.33-2.5,1.1,0,1.66.89,1.7,1.91Z"/><path class="cls-1" d="M506.87,111.37c0-5.52,2.93-9.72,6.45-11.59,1.53-.81,3.27-1.36,4.58-1.36,3.52,0,5.65,2.42,5.65,6.62,0,3.65-1.57,7.81-4.54,10.27-1.83,1.53-4.16,2.67-6.54,2.67-4.03,0-5.6-3.18-5.6-6.62ZM515.36,116.04c2.29-.98,4.63-5.48,4.63-10.91,0-3.44-1.49-5.09-3.44-5.09-.64,0-1.15.17-1.61.38-1.66.72-4.5,4.2-4.5,10.74,0,3.14,1.32,5.14,3.57,5.14.51,0,.93-.08,1.36-.25Z"/><path class="cls-1" d="M545.46,113.87c-2.5,2.72-4.88,4.12-5.99,4.12s-1.44-1.15-.68-4.42c.81-3.18,1.53-6.28,2.29-9.42.59-2.42.34-3.06-.34-3.06-1.87,0-6.79,5.26-8.91,8.87-.51,2.08-1.15,4.63-1.66,7.17-1.1.21-2.25.55-3.06.85l-.25-.34c1.15-4.58,2.42-9.68,3.44-14.39.34-1.36.21-1.7-.04-1.7-.38,0-1.7.89-2.76,1.91l-.55-1.02c2.29-2.5,4.8-4.03,5.99-4.03.98,0,1.15,1.44.34,4.71l-.89,3.69h.08c2.89-3.95,6.03-6.41,7.81-7.47,1.1-.64,2-.93,2.84-.93,1.02,0,2.21.64.93,6.07-.68,2.89-1.36,5.86-2.08,8.83-.25,1.15-.21,1.53.08,1.53.38,0,1.53-.76,2.8-2l.59,1.02Z"/><path class="cls-1" d="M557.26,114.94c-.04-.72.51-1.36,1.23-1.78.51-.25.85-.17,1.06.13,1.1,1.66,2.67,2.59,4.08,2.59,1.7,0,2.8-1.19,2.8-2.55,0-1.06-.47-2-2.46-3.57-1.91-1.44-3.69-3.01-3.69-5.18,0-1.27.51-2.63,2.21-4.12,1.32-1.15,3.35-2.04,4.71-2.04,1.87,0,3.31,1.27,3.31,2.38,0,.72-.42,1.36-1.06,1.74-.42.25-.68.17-.93-.17-.85-1.06-1.87-1.91-3.31-1.91-1.23,0-2.29.93-2.29,2.38,0,1.53,1.23,2.59,2.76,3.78,2.55,1.91,3.57,3.14,3.57,4.97,0,3.23-4.25,6.41-7.68,6.41-2,0-4.29-1.57-4.29-3.06Z"/><path class="cls-1" d="M573.14,111.37c0-5.52,2.93-9.72,6.45-11.59,1.53-.81,3.27-1.36,4.58-1.36,3.52,0,5.65,2.42,5.65,6.62,0,3.65-1.57,7.81-4.54,10.27-1.83,1.53-4.16,2.67-6.54,2.67-4.03,0-5.6-3.18-5.6-6.62ZM581.63,116.04c2.29-.98,4.63-5.48,4.63-10.91,0-3.44-1.49-5.09-3.44-5.09-.64,0-1.15.17-1.61.38-1.66.72-4.5,4.2-4.5,10.74,0,3.14,1.32,5.14,3.57,5.14.51,0,.93-.08,1.36-.25Z"/><path class="cls-1" d="M600.48,113.45c-2.21,2.63-5.22,4.54-6.54,4.54-.81,0-1.49-.98-.59-5.14,1.49-6.96,2.97-13.92,4.42-20.93.42-1.83.17-2.12-1.78-2.12l-1.15-.04.17-1.02c3.31-.38,5.73-1.49,6.28-1.49.38,0,.42.38.25,1.27-1.74,8.19-3.48,16.43-5.26,24.83-.25,1.23-.08,1.49.17,1.49.47,0,2.21-1.1,3.4-2.33l.64.93Z"/><path class="cls-1" d="M622.17,113.66c-2.04,2.46-4.84,4.33-6.16,4.33-.89,0-1.49-.81-.64-4.5.34-1.49.51-2.33.81-3.74h-.08c-2.08,2.76-4.58,5.35-6.83,6.92-1.19.85-2.42,1.32-3.44,1.32-1.15,0-2.5-.81-1.4-5.39.76-3.27,1.53-6.54,2.29-9.76.25-1.06.21-1.44-.13-1.44-.3,0-1.49.85-2.97,2.04l-.47-1.02c2.46-2.46,5.09-3.99,6.24-3.99.98,0,1.15.85.47,3.69-.76,3.35-1.53,6.79-2.33,10.19-.47,2.08-.13,2.8.51,2.8,2.38,0,7.13-5.69,8.79-8.79.47-1.95.98-4.2,1.53-6.79l2.93-1.1h.47c-1.15,4.5-2.25,9.25-3.31,14.77-.25,1.32-.17,1.66.13,1.66.38,0,1.91-1.02,3.06-2.21l.55,1.02Z"/><path class="cls-1" d="M636.01,100.55l-4.2.21-2.5,11.72c-.42,2.08-.21,2.55.25,2.55.72,0,2.8-1.4,3.82-2.46l.59.89c-1.4,1.7-4.58,4.54-6.83,4.54-.98,0-1.83-1.23-.89-5.6l2.5-11.63h-3.14l-.13-.38,1.06-1.27h2.55l.98-4.03,3.23-2.63.38.25-1.49,6.41h4.92l-1.1,1.44Z"/><path class="cls-1" d="M645.43,113.75c-1.4,1.74-4.71,4.25-6.2,4.25-.85,0-1.4-.68-.55-4.16l2.63-10.87c.25-.93.25-1.36-.04-1.36-.34,0-1.61.72-2.89,1.83l-.51-.98c2.33-2.29,5.31-4.03,6.45-4.03.93,0,.89,1.36.42,3.35l-2.93,11.72c-.25,1.02-.17,1.36.08,1.36.51,0,2-1.1,2.97-2l.55.89ZM646.54,92.18c0,1.32-.98,2.46-2.25,2.46-1.02,0-1.74-.76-1.78-1.87,0-1.06.85-2.5,2.33-2.5,1.1,0,1.66.89,1.7,1.91Z"/><path class="cls-1" d="M648.79,111.37c0-5.52,2.93-9.72,6.45-11.59,1.53-.81,3.27-1.36,4.58-1.36,3.52,0,5.65,2.42,5.65,6.62,0,3.65-1.57,7.81-4.54,10.27-1.83,1.53-4.16,2.67-6.54,2.67-4.03,0-5.6-3.18-5.6-6.62ZM657.27,116.04c2.29-.98,4.63-5.48,4.63-10.91,0-3.44-1.49-5.09-3.44-5.09-.64,0-1.15.17-1.61.38-1.66.72-4.5,4.2-4.5,10.74,0,3.14,1.32,5.14,3.57,5.14.51,0,.93-.08,1.36-.25Z"/><path class="cls-1" d="M687.37,113.87c-2.5,2.72-4.88,4.12-5.99,4.12s-1.44-1.15-.68-4.42c.81-3.18,1.53-6.28,2.29-9.42.59-2.42.34-3.06-.34-3.06-1.87,0-6.79,5.26-8.91,8.87-.51,2.08-1.15,4.63-1.66,7.17-1.1.21-2.25.55-3.06.85l-.25-.34c1.15-4.58,2.42-9.68,3.44-14.39.34-1.36.21-1.7-.04-1.7-.38,0-1.7.89-2.76,1.91l-.55-1.02c2.29-2.5,4.8-4.03,5.99-4.03.98,0,1.15,1.44.34,4.71l-.89,3.69h.08c2.89-3.95,6.03-6.41,7.81-7.47,1.1-.64,2-.93,2.84-.93,1.02,0,2.21.64.93,6.07-.68,2.89-1.36,5.86-2.08,8.83-.25,1.15-.21,1.53.08,1.53.38,0,1.53-.76,2.8-2l.59,1.02Z"/><path class="cls-1" d="M689.45,114.94c-.04-.72.51-1.36,1.23-1.78.51-.25.85-.17,1.06.13,1.1,1.66,2.67,2.59,4.08,2.59,1.7,0,2.8-1.19,2.8-2.55,0-1.06-.47-2-2.46-3.57-1.91-1.44-3.69-3.01-3.69-5.18,0-1.27.51-2.63,2.21-4.12,1.32-1.15,3.35-2.04,4.71-2.04,1.87,0,3.31,1.27,3.31,2.38,0,.72-.42,1.36-1.06,1.74-.42.25-.68.17-.93-.17-.85-1.06-1.87-1.91-3.31-1.91-1.23,0-2.29.93-2.29,2.38,0,1.53,1.23,2.59,2.76,3.78,2.55,1.91,3.57,3.14,3.57,4.97,0,3.23-4.25,6.41-7.68,6.41-2,0-4.29-1.57-4.29-3.06Z"/><path class="cls-2" d="M74.49,148.99C33.42,148.99,0,115.57,0,74.49S33.42,0,74.49,0s74.49,33.42,74.49,74.49-33.42,74.49-74.49,74.49ZM74.49,4.37C35.83,4.37,4.37,35.83,4.37,74.49s31.46,70.12,70.12,70.12,70.12-31.46,70.12-70.12S113.16,4.37,74.49,4.37Z"/><path class="cls-2" d="M73.18,55.51h9.71c4.53,0,8.38.6,11.55,1.8,3.17,1.2,5.69,2.85,7.57,4.95,1.88,2.11,3.24,4.5,4.08,7.19.84,2.69,1.26,5.55,1.26,8.59,0,4.79-.89,9.39-2.67,13.79-1.78,4.4-4.22,8.29-7.33,11.65-3.11,3.37-6.7,5.99-10.78,7.86-4.08,1.88-8.35,2.82-12.82,2.82h-19.23V34.83h18.64v20.68ZM73.18,98.33c2.2-.26,4.24-.97,6.12-2.14,1.88-1.16,3.5-2.64,4.86-4.42,1.36-1.78,2.39-3.74,3.11-5.87.71-2.13,1.07-4.3,1.07-6.51,0-1.88-.31-3.38-.92-4.52-.62-1.13-1.41-1.94-2.38-2.43-.97-.49-1.91-.79-2.82-.92-.91-.13-1.91-.19-3.01-.19h-6.02v26.99Z"/></g></svg>