<?xml version="1.0" encoding="UTF-8"?><svg id="Layer_2" xmlns="http://www.w3.org/2000/svg" viewBox="0 0 148.99 148.99"><defs><style>.cls-1{fill:#a0252b;}</style></defs><g id="Layer_1-2"><g><path class="cls-1" d="M74.49,148.99C33.42,148.99,0,115.57,0,74.49S33.42,0,74.49,0s74.49,33.42,74.49,74.49-33.42,74.49-74.49,74.49Zm0-144.62C35.83,4.37,4.37,35.83,4.37,74.49s31.46,70.12,70.12,70.12,70.12-31.46,70.12-70.12S113.16,4.37,74.49,4.37Z"/><path class="cls-1" d="M73.18,55.51h9.71c4.53,0,8.38,.6,11.55,1.8,3.17,1.2,5.69,2.85,7.57,4.95,1.88,2.11,3.24,4.5,4.08,7.19,.84,2.69,1.26,5.55,1.26,8.59,0,4.79-.89,9.39-2.67,13.79-1.78,4.4-4.22,8.29-7.33,11.65-3.11,3.37-6.7,5.99-10.78,7.86-4.08,1.88-8.35,2.82-12.82,2.82h-19.23V34.83h18.64v20.68Zm0,42.82c2.2-.26,4.24-.97,6.12-2.14,1.88-1.16,3.5-2.64,4.86-4.42,1.36-1.78,2.39-3.74,3.11-5.87,.71-2.13,1.07-4.3,1.07-6.51,0-1.88-.31-3.38-.92-4.52-.62-1.13-1.41-1.94-2.38-2.43-.97-.49-1.91-.79-2.82-.92-.91-.13-1.91-.19-3.01-.19h-6.02v26.99Z"/></g></g></svg>